<svg xmlns="http://www.w3.org/2000/svg" id="Capa_2" data-name="Capa 2" viewBox="0 0 199.07 55.49"><defs><style>      .cls-1 {        fill: #fff;      }    </style></defs><g id="Capa_1-2" data-name="Capa 1"><g><path class="cls-1" d="m34.14,2.8c-.03.13-.07.27-.1.4.44.15.86.37,1.31.45,2.98.57,4.64,2.45,5.12,5.33.28,1.66.37,3.36.38,5.05.04,10.52.03,21.04.03,31.56,0,.62-.07,1.23-.1,1.85-.14,3.45-1.83,5.62-5.25,6.42-.53.12-1.02.39-1.52.59.02.12.05.24.07.36h25.56c.05-.1.09-.21.14-.31-.62-.27-1.23-.61-1.88-.81-2.69-.8-4.35-2.55-4.71-5.32-.26-2.04-.37-4.1-.38-6.15-.03-9.28.04-18.57-.01-27.85-.01-2.29.12-4.52.92-6.69.84-2.3,2.3-3.76,4.86-3.96.39-.03.75-.39,1.13-.6-.06-.11-.12-.22-.18-.32h-25.38Zm164.93,40.6c-.1-.07-.21-.14-.31-.21-.25.18-.54.31-.73.54-2.01,2.35-4.62,3.52-7.63,3.97-6.93,1.04-13.11-3.42-14.35-10.27-.66-3.67-.59-7.32.09-10.94.59-3.13,1.66-6.07,4.63-7.86.27-.16.44-.49.65-.74-1.58.21-3.01.6-4.38,1.12-8.74,3.31-14.26,14.12-10.92,24.46,3.05,9.44,11.17,13.37,20.53,11.53,5.32-1.05,9.01-4.49,11.37-9.33.37-.75.7-1.51,1.04-2.27ZM16.21,17.92c-.07-.09-.13-.17-.2-.26-1.21.38-2.45.71-3.64,1.15-.97.36-1.93.77-2.82,1.28C1.59,24.63-1.95,34.48,1.07,43.78c3.06,9.44,11.39,13.07,20.48,11.2,6.07-1.25,9.84-5.46,12.12-11.06.08-.19.01-.45.01-.89-.4.32-.67.49-.87.72-1.95,2.27-4.47,3.44-7.4,3.91-7.06,1.14-13.29-3.27-14.57-10.27-.68-3.71-.58-7.4.12-11.06.58-3.06,1.69-5.88,4.53-7.65.29-.18.48-.5.72-.76Zm120.98,6.11c.1.13.2.26.3.39.19-.03.38-.05.57-.08,1.54-.24,3.07-.71,4.6-.69,3.5.06,5.28,1.8,5.47,5.25.16,3,.22,6.01.22,9.02,0,4.12-.11,8.24-.15,12.36-.02,1.6-.89,2.6-2.25,3.27-.64.32-1.29.61-1.94.92l.07.33h19.37c-.09-.18-.11-.28-.17-.32-.17-.12-.34-.25-.53-.31-3.05-.92-3.95-3.1-3.87-6.08.12-4.45.06-8.91.02-13.36-.03-2.92,0-5.86-.27-8.77-.57-6.29-5.06-8.69-10.24-8.3-2.99.22-5.67,1.52-8.01,3.39-1.14.91-2.14,1.98-3.2,2.98Zm-42.32,31.2c-.55-.41-.83-.74-1.18-.84-2.81-.82-5.02-2.61-6.9-4.69-3.44-3.79-6.78-7.69-9.95-11.7-3.83-4.86-7.46-9.89-11.12-14.88-.58-.79-.88-.6-1.39-.02-1.98,2.27-3.97,4.55-6.02,6.76-.66.71-.76,1.3-.22,2.06,3.84,5.42,7.55,10.94,11.55,16.24,2.95,3.9,6.93,6.38,11.97,6.71,4.01.26,8.02.42,12.03.61.3.01.61-.12,1.23-.25Zm2.56-33.05c-.02.13-.04.26-.05.39.38.3.76.59,1.14.89,1.64,1.28,2.8,2.88,2.82,5.01.05,6.89.05,13.78,0,20.68-.02,2.35-1.02,4.13-3.46,4.85-.42.12-.78.41-1.17.63.04.09.08.18.11.26h19.83c-.24-.48-.57-.78-.95-.89-2.7-.84-3.78-2.82-3.77-5.45.02-8.95.1-17.91.16-26.86,0-1.26,0-2.53,0-3.98-4.92,1.51-9.79,3-14.65,4.49Zm37.54-4.56c-.62.17-1.08.3-1.54.44-3.87,1.19-7.74,2.38-11.61,3.58-.33.1-.61.35-.92.52.23.36.38.88.71,1.07,2.2,1.28,2.87,3.33,2.88,5.67.03,6.68-.02,13.37.04,20.05.03,2.62-1.01,4.33-3.57,5.09-.37.11-.68.4-1.31.78h19.71c.03-.1.05-.21.08-.31-.53-.27-1.05-.55-1.58-.8-1.6-.72-2.6-1.84-2.62-3.69-.02-1.32-.19-2.63-.19-3.95,0-9.08,0-18.15.01-27.23,0-.35-.05-.7-.09-1.22Zm-116.79.12c.47.41.8.63,1.05.92.77.89,1.72,1.7,2.22,2.73,1.03,2.14,1.33,4.48,1.31,6.87,0,.75-.28,1-1.01,1.05-2.39.17-4.79.39-7.17.62-.42.04-.83.24-1.24.36.03.1.06.21.08.31,1.1,0,2.19,0,3.29,0,4.97.01,9.94.03,14.91.04.64,0,1.07-.22.87-.97-.38-1.39-.61-2.84-1.18-4.15-2.29-5.27-6.92-7.11-12.17-7.96-.21-.03-.45.08-.96.17Zm165.54-.22c-.06.13-.11.26-.17.39.26.23.56.43.78.69.81.95,1.96,1.81,2.32,2.91.67,2.09.9,4.32,1.29,6.5.15.86-.21,1.26-1.13,1.32-2.35.15-4.7.37-7.05.6-.39.04-.76.22-1.14.34l.07.35c1.25,0,2.51,0,3.76,0,4.8.01,9.6.03,14.4.04.6,0,.93-.23.82-.91-.46-2.91-1.42-5.55-3.5-7.76-2.31-2.44-5.28-3.45-8.42-4.16-.67-.15-1.35-.21-2.03-.31Zm-77.29-6.06c3.26.02,6.11-2.61,6.09-5.62C112.5,2.63,109.76-.02,106.48,0c-3.08.02-5.89,2.74-5.91,5.73-.02,3.02,2.73,5.71,5.86,5.73Zm-13.94-8.28l-.12-.34h-24.66c-.02.11-.04.22-.07.33.35.13.69.3,1.05.39.56.15,1.14.22,1.69.38,2.81.84,4.46,3.65,3.46,6.37-.66,1.79-1.8,3.4-2.73,5.1-.19.35-.37.71-.56,1.07.1.07.19.13.29.2.32-.29.65-.58.97-.86,4.04-3.56,8.2-6.97,12.86-9.7,2.07-1.21,4.22-2.29,6.7-2.46.38-.03.74-.31,1.11-.47Z"></path><path class="cls-1" d="m34.14,2.8h25.38c.06.11.12.22.18.32-.38.21-.74.57-1.13.6-2.56.2-4.02,1.66-4.86,3.96-.79,2.17-.93,4.39-.92,6.69.05,9.28-.02,18.57.01,27.85,0,2.05.12,4.12.38,6.15.35,2.77,2.01,4.52,4.71,5.32.65.19,1.25.53,1.88.81-.05.1-.09.21-.14.31h-25.56c-.02-.12-.05-.24-.07-.36.51-.2,1-.47,1.52-.59,3.42-.8,5.12-2.97,5.25-6.42.02-.62.1-1.23.1-1.85,0-10.52,0-21.04-.03-31.56,0-1.68-.1-3.39-.38-5.05-.48-2.88-2.14-4.75-5.12-5.33-.45-.09-.87-.3-1.31-.45.03-.13.07-.27.1-.4Z"></path><path class="cls-1" d="m199.07,43.4c-.35.76-.68,1.52-1.04,2.27-2.36,4.84-6.05,8.28-11.37,9.33-9.36,1.84-17.48-2.09-20.53-11.53-3.35-10.34,2.18-21.15,10.92-24.46,1.37-.52,2.8-.91,4.38-1.12-.21.25-.38.58-.65.74-2.97,1.79-4.04,4.73-4.63,7.86-.68,3.63-.75,7.27-.09,10.94,1.24,6.85,7.42,11.31,14.35,10.27,3.01-.45,5.62-1.62,7.63-3.97.19-.22.49-.36.73-.54.1.07.21.14.31.21Z"></path><path class="cls-1" d="m16.21,17.92c-.24.26-.44.58-.72.76-2.84,1.77-3.94,4.59-4.53,7.65-.7,3.67-.79,7.36-.12,11.06,1.28,7,7.51,11.41,14.57,10.27,2.92-.47,5.45-1.64,7.4-3.91.2-.23.48-.4.87-.72,0,.44.07.69-.01.89-2.28,5.59-6.05,9.81-12.12,11.06-9.09,1.87-17.42-1.76-20.48-11.2-3.01-9.3.53-19.15,8.49-23.69.89-.51,1.85-.92,2.82-1.28,1.19-.44,2.42-.77,3.64-1.15.07.09.13.17.2.26Z"></path><path class="cls-1" d="m137.19,24.04c1.06-1,2.07-2.07,3.2-2.98,2.34-1.87,5.02-3.17,8.01-3.39,5.18-.39,9.67,2,10.24,8.3.26,2.91.24,5.85.27,8.77.04,4.45.1,8.91-.02,13.36-.08,2.99.82,5.16,3.87,6.08.19.06.36.19.53.31.06.04.08.14.17.32h-19.37l-.07-.33c.65-.31,1.3-.6,1.94-.92,1.36-.67,2.23-1.66,2.25-3.27.04-4.12.15-8.24.15-12.36,0-3.01-.05-6.02-.22-9.02-.19-3.44-1.97-5.19-5.47-5.25-1.53-.03-3.07.44-4.6.69-.19.03-.38.05-.57.08-.1-.13-.2-.26-.3-.39Z"></path><path class="cls-1" d="m94.87,55.23c-.62.13-.93.27-1.23.25-4.01-.19-8.02-.35-12.03-.61-5.05-.33-9.03-2.81-11.97-6.71-4-5.3-7.72-10.82-11.55-16.24-.54-.76-.43-1.36.22-2.06,2.05-2.21,4.03-4.49,6.02-6.76.51-.59.81-.78,1.39.02,3.66,4.99,7.29,10.01,11.12,14.88,3.17,4.02,6.51,7.91,9.95,11.7,1.88,2.07,4.09,3.87,6.9,4.69.35.1.62.44,1.18.84Z"></path><path class="cls-1" d="m97.43,22.18c4.86-1.49,9.73-2.98,14.65-4.49,0,1.46,0,2.72,0,3.98-.06,8.95-.13,17.91-.16,26.86,0,2.63,1.07,4.62,3.77,5.45.38.12.71.41.95.89h-19.83c-.04-.09-.08-.18-.11-.26.39-.21.75-.51,1.17-.63,2.44-.72,3.44-2.49,3.46-4.85.05-6.89.04-13.78,0-20.68-.01-2.13-1.18-3.73-2.82-5.01-.38-.3-.76-.59-1.14-.89.02-.13.04-.26.05-.39Z"></path><path class="cls-1" d="m134.97,17.63c.04.52.09.87.09,1.22,0,9.08-.02,18.15-.01,27.23,0,1.32.18,2.63.19,3.95.02,1.85,1.02,2.97,2.62,3.69.54.24,1.06.53,1.58.8-.03.1-.05.21-.08.31h-19.71c.63-.39.95-.67,1.31-.78,2.57-.75,3.6-2.46,3.57-5.09-.07-6.68-.01-13.37-.04-20.05-.01-2.34-.68-4.38-2.88-5.67-.33-.19-.48-.7-.71-1.07.3-.18.59-.42.92-.52,3.87-1.21,7.74-2.4,11.61-3.58.46-.14.92-.26,1.54-.44Z"></path><path class="cls-1" d="m18.18,17.75c.51-.1.75-.21.96-.17,5.24.85,9.87,2.68,12.17,7.96.57,1.31.8,2.76,1.18,4.15.2.74-.22.97-.87.97-4.97-.01-9.94-.03-14.91-.04-1.1,0-2.19,0-3.29,0-.03-.1-.06-.21-.08-.31.41-.13.82-.32,1.24-.36,2.39-.23,4.78-.45,7.17-.62.72-.05,1-.3,1.01-1.05.02-2.38-.28-4.72-1.31-6.87-.49-1.03-1.45-1.84-2.22-2.73-.25-.29-.58-.51-1.05-.92Z"></path><path class="cls-1" d="m183.72,17.52c.68.1,1.36.16,2.03.31,3.14.72,6.11,1.72,8.42,4.16,2.09,2.21,3.05,4.85,3.5,7.76.11.68-.22.91-.82.91-4.8-.01-9.6-.03-14.4-.04-1.25,0-2.51,0-3.76,0l-.07-.35c.38-.12.75-.31,1.14-.34,2.35-.22,4.7-.45,7.05-.6.93-.06,1.29-.46,1.13-1.32-.39-2.18-.61-4.41-1.29-6.5-.36-1.11-1.51-1.96-2.32-2.91-.22-.26-.52-.46-.78-.69.06-.13.11-.26.17-.39Z"></path><path class="cls-1" d="m106.43,11.46c-3.13-.02-5.88-2.71-5.86-5.73C100.59,2.75,103.4.02,106.48,0c3.28-.02,6.02,2.63,6.04,5.84.02,3.01-2.83,5.64-6.09,5.62Z"></path><path class="cls-1" d="m92.49,3.19c-.37.16-.73.45-1.11.47-2.48.17-4.63,1.25-6.7,2.46-4.66,2.73-8.82,6.14-12.86,9.7-.33.29-.65.58-.97.86-.1-.07-.19-.13-.29-.2.18-.36.36-.72.56-1.07.92-1.69,2.06-3.31,2.73-5.1,1.01-2.72-.64-5.53-3.46-6.37-.55-.17-1.13-.23-1.69-.38-.36-.1-.7-.26-1.05-.39.02-.11.04-.22.07-.33h24.66l.12.34Z"></path></g></g></svg>